[img]http://lookpic.com/i/116/XPY1Lkrx.jpeg[/img]


[b][u]Reborn (2009) DVDRip XviD{ExtraTorrent}-Dubby[/u][/b]
-------------------------------------------------------------------------------
[b]Movie Information[/b]
-------------------------------------------------------------------------------
Movie Title    : Reborn aka Machined Reborn
IMDB Link      : http://www.imdb.com/title/tt1486799/
Genre          : Horror
IMDB Ratings   : No Voters
Director       : Craig McMahon
Language       : English
Duriation      : 80 min

-------------------------------------------------------------------------------
[b]Main Cast[/b]
-------------------------------------------------------------------------------
Kathleen Benner		
	
Russell Clay		
	
Chris Cox		
	
Jimmy Flowers		

David C. Hayes		

Davina Joy		
	
Dave Kahrl		
	
Eleni C. Krimitsos		
	
Kevin Moyers		

Matt Robinson		

Klor Rowland	... 	Hick #1
	
Hollywood Yates		
-------------------------------------------------------------------------------
[b]Plot[/b]
-------------------------------------------------------------------------------
When a property in the Sonoran Desert, AZ fell into default foreclosure and went 
up for public auction an eager young newlywed couple jumped at the opportunity
to purchase. Little did they know it used to be a torture ground owned by the 
serial killer "Motorman Danö whose crimes became the most puzzling in U.S. 
history. Now, their honeymoon phase has come to a horrifying halt, as the 
Motorman rises for one more round of terror. 
-------------------------------------------------------------------------------
[b]General Release Information[/b]
-------------------------------------------------------------------------------
Release Title                    : Reborn (2009) DVDRip XviD{ExtraTorrent}-Dubby
Source                           : Reborn.2009.NTSC.DVDR-DPiMP
Format                           : AVI
Format/Info                      : Audio Video Interleave
File size                        : 710 MiB
Duration                         : 1h 27mn
Overall bit rate                 : 1 131 Kbps
Writing application              : VirtualDubMod 1.5.10.2 (build 2540/release)
Writing library                  : VirtualDubMod build 2540/release

-------------------------------------------------------------------------------
[b]Video Information[/b]
-------------------------------------------------------------------------------
ID                               : 0
Format                           : MPEG-4 Visual
Format profile                   : AdvancedSimple@L5
Format settings, BVOP            : Yes
Format settings, QPel            : No
Format settings, GMC             : No warppoints
Format settings, Matrix          : Default (H.263)
Muxing mode                      : Packed bitstream
Codec ID                         : XVID
Codec ID/Hint                    : XviD
Duration                         : 1h 27mn
Bit rate                         : 991 Kbps
Width                            : 640 pixels
Height                           : 352 pixels
Display aspect ratio             : 16:9
Frame rate                       : 29.970 fps
Resolution                       : 24 bits
Colorimetry                      : 4:2:0
Scan type                        : Progressive
Bits/(Pixel*Frame)               : 0.147
Stream size                      : 623 MiB (88%)
Writing library                  : XviD 1.2.1 (UTC 2008-12-04)

-------------------------------------------------------------------------------
[b]Audio Information[/b]
-------------------------------------------------------------------------------
ID                               : 1
Format                           : MPEG Audio
Format version                   : Version 1
Format profile                   : Layer 3
Format settings, Mode            : Joint stereo / MS Stereo
Codec ID                         : 55
Codec ID/Hint                    : MP3
Duration                         : 1h 27mn
Bit rate mode                    : Constant
Bit rate                         : 128 Kbps
Channel(s)                       : 2 channels
Sampling rate                    : 48.0 KHz
Resolution                       : 16 bits
Stream size                      : 80.4 MiB (11%)
Alignment                        : Aligned on interleaves
Interleave, duration             : 33 ms (1.00 video frame)
Interleave, preload duration     : 504 ms


-------------------------------------------------------------------------------
[b]Notes[/b]
-------------------------------------------------------------------------------
I am looking For PAL and NTSC DVDRs, Pre released R5s, dvd/screeners, direct/
line audio, and syncers. If you can offer me anything, pm me and we'll chat
on msn! i do not take requests very often....
this is burn tested using convert x to dvd enjoy.

-------------------------------------------------------------------------------
[b]Screenshots[/b]
-------------------------------------------------------------------------------
[img]http://lookpic.com/i/69/3pnc3Y4.png[/img]
[img]http://lookpic.com/i/702/rYFTOjDM.png[/img]
[img]http://lookpic.com/i/440/YruroFhM.png[/img]
[img]http://lookpic.com/i/612/QlnkZZtG.png[/img]
[img]http://lookpic.com/i/279/N388Mh.png[/img]


Quick Shouts: Wrath, BADASS, SaM, xxxObscenexxx and every other loyal member
of et thanks to you for seeding and sharing! Blazinseedboxes.com is a good place
to get a seedbox if you are interested!